# Blender 3.6.2
# www.blender.org
mtllib Lampada-remasted-colorida.mtl
o Sphere.001
v 0.713647 2.190309 -1.669183
v 0.753118 2.190309 -1.475353
v 0.644477 2.190309 -1.373957
v 0.466042 2.190309 -1.405491
v 0.426570 2.190309 -1.599321
v 0.535212 2.190309 -1.700716
v 0.664277 2.167740 -1.702171
v 0.757764 2.167740 -1.566416
v 0.732092 2.167740 -1.436016
v 0.549000 2.167740 -1.361149
v 0.412731 2.167740 -1.525394
v 0.484351 2.167740 -1.673531
vn 0.1195 0.7270 -0.6762
vn 0.5751 0.5382 0.6162
vn -0.1064 0.7915 0.6018
vn -0.6108 0.7820 0.1244
vn 0.6905 0.7095 -0.1406
vn -0.5702 0.5491 -0.6110
vn 0.5904 -0.6972 -0.4066
vn 0.8497 -0.5000 0.1673
vn -0.6780 -0.6580 -0.3278
vn -0.4126 -0.8441 0.3423
vn -0.1206 -0.6411 -0.7579
vn 0.2577 -0.7325 0.6302
s 0
usemtl Material.003
f 1//1 7//1 6//1
f 3//2 9//2 2//2
f 4//3 10//3 3//3
f 5//4 11//4 4//4
f 2//5 8//5 1//5
f 6//6 12//6 5//6
f 1//7 8//7 7//7
f 2//8 9//8 8//8
f 5//9 12//9 11//9
f 4//10 11//10 10//10
f 6//11 7//11 12//11
f 3//12 10//12 9//12
o rosca
v 0.677626 2.834609 -1.978643
v 0.909599 2.833093 -1.857091
v 1.031151 2.834609 -1.625118
v 1.019783 2.832689 -1.407206
v 0.909185 2.833776 -1.218602
v 0.678065 2.833093 -1.093825
v 0.417655 2.834609 -1.121635
v 0.242784 2.832689 -1.252153
v 0.146332 2.833093 -1.449116
v 0.174143 2.834609 -1.709526
v 0.304661 2.832689 -1.884397
v 0.459298 2.832338 -1.967689
v 0.656890 2.264822 -1.840289
v 0.606669 2.193203 -1.707270
v 0.721911 2.194858 -1.644638
v 0.876362 2.258522 -1.733253
v 0.759728 2.191656 -1.537470
v 0.903006 2.264272 -1.415336
v 0.721955 2.193326 -1.428848
v 0.719007 2.264295 -1.219302
v 0.623017 2.191221 -1.370515
v 0.540774 2.190643 -1.375595
v 0.380362 2.262886 -1.258852
v 0.457733 2.193326 -1.428848
v 0.250432 2.264066 -1.618121
v 0.419961 2.191656 -1.537470
v 0.440766 2.190630 -1.617006
v 0.494826 2.191440 -1.678227
v 0.390315 2.264582 -1.789439
v 0.835266 2.732645 -1.835711
v 0.518605 2.733919 -1.924958
v 0.905763 2.733215 -1.318887
v 0.253466 2.732663 -1.312576
v 0.976699 2.731995 -1.578281
v 0.245064 2.731794 -1.717206
v 0.655001 2.732678 -1.149572
v 0.836527 2.698918 -1.918171
v 0.246978 2.698905 -1.237788
v 0.404795 2.698953 -1.951797
v 0.645523 2.698936 -1.099019
v 0.163585 2.698936 -1.653634
v 0.930100 2.698937 -1.258096
v 1.030602 2.698936 -1.568240
v 0.737849 2.641643 -1.896121
v 0.377135 2.642963 -1.228946
v 0.966459 2.641518 -1.532763
v 0.357985 2.643697 -1.826927
v 0.759327 2.642246 -1.195282
v 0.214087 2.640800 -1.537337
v 0.553948 2.594881 -1.099779
v 0.868843 2.596770 -1.197377
v 0.256986 2.596738 -1.852103
v 1.027635 2.594208 -1.494218
v 0.849945 2.596773 -1.913651
v 0.191864 2.594444 -1.317593
v 0.699113 2.543986 -1.897912
v 0.224289 2.543809 -1.604824
v 0.352185 2.542387 -1.240676
v 0.975931 2.543180 -1.535317
v 0.386590 2.542783 -1.840111
v 0.736822 2.543809 -1.195895
v 0.929015 2.500231 -1.218857
v 0.755537 2.501061 -1.956097
v 0.262987 2.500242 -1.864194
v 0.424151 2.501061 -1.118577
v 0.163400 2.499713 -1.412863
v 1.010917 2.499752 -1.673272
v 0.176081 2.393567 -1.554511
v 0.797008 2.393572 -1.175600
v 0.522862 2.444653 -1.900721
v 0.825412 2.445956 -1.817939
v 0.963749 2.444366 -1.457202
v 0.363268 2.445993 -1.251264
v 0.210993 2.445646 -1.614973
v 0.663506 2.445406 -1.174017
v 0.940507 2.393114 -1.316055
v 0.513114 2.398497 -1.119895
v 0.238420 2.394189 -1.304796
v 0.915287 2.394395 -1.801707
v 0.631199 2.392804 -1.955113
v 0.289919 2.392591 -1.840742
v 1.006932 2.395697 -1.538200
vn 0.3405 -0.5891 -0.7328
vn 0.8666 -0.3991 -0.2994
vn 0.3092 -0.9411 -0.1372
vn 0.8597 -0.4443 0.2519
vn 0.3525 -0.9257 0.1368
vn 0.5820 -0.5528 0.5964
vn 0.2063 -0.9259 0.3165
vn 0.1692 -0.4057 0.8982
vn -0.2132 -0.9344 0.2853
vn -0.3583 -0.9300 -0.0817
vn -0.2687 -0.5324 -0.8027
vn -0.1090 -0.8745 -0.4727
vn -0.7162 -0.4545 -0.5296
vn -0.5208 -0.4814 0.7049
vn 0.8904 -0.4531 0.0425
vn 0.4076 -0.4685 -0.7838
vn 0.4090 -0.5129 0.7547
vn -0.3952 -0.5557 -0.7314
vn 0.7591 -0.4725 0.4479
vn -0.8449 -0.3398 0.4131
vn -0.6336 0.5795 -0.5125
vn 0.3169 0.7604 0.5669
vn -0.3702 0.9289 0.0057
vn -0.2207 0.9340 -0.2810
vn -0.8318 0.5295 0.1668
vn 0.0691 0.4560 -0.8873
vn -0.6181 -0.6065 -0.5001
vn -0.0830 -0.8994 -0.4291
vn 0.4360 -0.4491 0.7799
vn -0.2800 -0.5243 0.8042
vn -0.8913 -0.4168 0.1787
vn 0.0689 -0.4596 -0.8854
vn -0.3979 -0.8915 0.2166
vn -0.3778 0.9085 -0.1787
vn -0.1024 0.1296 -0.9863
vn -0.9877 -0.0990 -0.1208
vn -0.4782 0.3750 0.7942
vn -0.0435 -0.9142 0.4029
vn -0.3540 -0.9038 -0.2403
vn -0.1032 -0.0016 -0.9947
vn 0.2433 -0.5849 0.7737
vn 0.7832 -0.5238 -0.3350
vn -0.4906 -0.3050 0.8162
vn -0.0434 0.9383 0.3432
vn -0.2838 0.9378 -0.1999
vn -0.1253 0.7389 -0.6621
vn 0.9591 0.2243 0.1726
vn -0.1253 0.7365 -0.6648
vn 0.2368 0.9574 0.1650
vn -0.3179 0.9411 0.1153
vn 0.1847 0.3260 0.9271
vn -0.3019 0.3136 -0.9003
vn 0.1804 0.4378 0.8808
vn -0.9121 0.1896 -0.3634
vn 0.5495 0.8124 -0.1951
vn -0.1141 0.8855 0.4503
vn 0.1396 0.8406 -0.5233
vn 0.3415 0.8687 0.3589
vn -0.7111 0.6808 0.1758
vn -0.4432 0.8772 0.1847
vn -0.3727 -0.9146 0.1569
vn 0.1927 -0.1388 0.9714
vn 0.5935 -0.5980 -0.5387
vn -0.1792 -0.2054 -0.9621
vn 0.9739 -0.1440 0.1757
vn -0.5896 -0.6136 0.5252
vn -0.0454 -0.8827 0.4678
vn 0.7592 -0.6488 -0.0519
vn 0.4676 -0.8836 -0.0232
vn 0.5862 -0.5946 0.5503
vn 0.3272 -0.8936 0.3072
vn -0.0831 -0.6723 0.7356
vn -0.7407 -0.6301 0.2333
vn -0.5303 -0.2952 0.7947
vn -0.4474 -0.8797 0.1613
vn -0.3369 -0.8970 -0.2861
vn -0.8767 -0.3326 -0.3475
vn -0.5861 -0.6523 -0.4806
vn -0.7449 -0.6668 -0.0224
vn -0.1374 -0.6766 -0.7234
vn -0.0945 -0.8612 -0.4994
vn -0.0966 -0.4661 0.8795
vn 0.7281 -0.6550 0.2022
vn -0.0412 -0.4187 -0.9072
vn 0.7161 -0.5831 -0.3838
vn -0.2493 -0.7488 0.6141
vn -0.4304 -0.6967 -0.5739
vn 0.1954 -0.6836 -0.7032
vn 0.4284 -0.6453 0.6325
vn 0.5534 0.8164 0.1648
vn -0.1699 0.8765 0.4504
vn 0.5480 0.7801 -0.3019
vn 0.1094 0.9206 -0.3749
vn 0.2628 0.8817 0.3919
vn 0.4823 -0.8281 -0.2859
vn -0.4527 -0.8605 -0.2336
vn -0.0429 -0.8823 0.4688
vn 0.7169 -0.6573 0.2323
vn 0.3836 -0.8925 0.2373
vn 0.4236 0.8735 0.2398
vn -0.0324 0.9214 0.3873
vn -0.1295 0.6703 -0.7307
vn 0.2440 0.5510 0.7981
vn 0.6930 0.6602 -0.2896
vn 0.1822 -0.9051 -0.3842
vn 0.3142 0.9142 -0.2561
vn -0.3226 0.9322 0.1640
vn 0.3348 0.9185 -0.2103
vn -0.1505 -0.5448 -0.8250
vn -0.9915 0.0491 -0.1206
vn 0.3623 -0.8960 0.2569
vn -0.3592 -0.9252 0.1225
vn 0.5412 -0.7870 0.2963
vn 0.2998 -0.9256 -0.2310
vn -0.6292 0.5441 0.5550
vn -0.9028 0.3814 -0.1988
vn 0.8987 0.3435 0.2727
vn -0.5032 0.4511 0.7371
vn 0.4148 0.4797 -0.7732
vn -0.2830 0.9069 -0.3121
vn 0.3652 0.8541 0.3703
vn 0.5143 0.8355 -0.1935
vn 0.3818 -0.9119 -0.1504
vn 0.2366 -0.9378 0.2543
vn 0.1185 -0.9002 -0.4190
vn -0.2364 -0.9377 -0.2547
vn -0.1108 -0.8989 0.4239
vn -0.9751 -0.0538 -0.2152
vn 0.4133 -0.5014 -0.7601
s 0
usemtl Material.002
f 28//13 25//13 92//13
f 94//14 28//14 91//14
f 27//15 28//15 29//15
f 88//16 30//16 94//16
f 30//17 31//17 29//17
f 81//18 32//18 88//18
f 32//19 33//19 31//19
f 89//20 32//20 81//20
f 34//21 35//21 36//21
f 37//22 39//22 38//22
f 41//23 93//23 92//23
f 40//24 41//24 26//24
f 23//25 47//25 22//25
f 20//26 45//26 19//26
f 16//27 46//27 15//27
f 14//28 42//28 13//28
f 18//29 48//29 17//29
f 24//30 43//30 23//30
f 17//31 44//31 16//31
f 21//32 45//32 20//32
f 47//33 51//33 53//33
f 48//34 52//34 54//34
f 47//35 53//35 45//35
f 43//36 51//36 47//36
f 45//37 53//37 50//37
f 43//38 49//38 51//38
f 51//39 59//39 53//39
f 51//40 56//40 59//40
f 52//41 60//41 54//41
f 50//42 57//42 52//42
f 53//43 61//43 50//43
f 49//44 56//44 51//44
f 50//45 61//45 57//45
f 59//46 64//46 61//46
f 56//47 66//47 64//47
f 61//48 64//48 67//48
f 57//49 67//49 62//49
f 62//50 70//50 73//50
f 64//51 72//51 69//51
f 66//52 68//52 64//52
f 62//53 73//53 63//53
f 65//54 71//54 66//54
f 67//55 70//55 62//55
f 70//56 77//56 73//56
f 72//57 76//57 69//57
f 68//58 76//58 72//58
f 71//59 74//59 79//59
f 68//60 75//60 76//60
f 73//61 74//61 71//61
f 69//62 78//62 70//62
f 73//63 77//63 74//63
f 82//64 92//64 93//64
f 87//65 89//65 81//65
f 86//66 93//66 80//66
f 84//67 94//67 91//67
f 85//68 89//68 87//68
f 83//69 92//69 82//69
f 87//70 81//70 84//70
f 86//71 80//71 90//71
f 86//72 90//72 85//72
f 78//73 86//73 85//73
f 77//74 87//74 74//74
f 79//75 83//75 75//75
f 75//76 82//76 76//76
f 74//77 84//77 79//77
f 78//78 85//78 77//78
f 35//79 34//79 33//79 32//79
f 94//80 30//80 28//80
f 29//81 28//81 30//81
f 88//82 32//82 30//82
f 30//83 32//83 31//83
f 35//84 32//84 89//84
f 90//85 80//85 37//85 35//85
f 89//86 90//86 35//86
f 37//87 38//87 36//87 35//87
f 40//88 39//88 37//88 41//88
f 80//89 93//89 37//89
f 93//90 41//90 37//90
f 47//91 45//91 21//91 22//91
f 25//92 41//92 92//92
f 26//93 41//93 25//93
f 18//94 19//94 48//94
f 16//95 44//95 46//95
f 24//96 13//96 43//96
f 46//97 42//97 14//97 15//97
f 19//98 45//98 48//98
f 23//99 43//99 47//99
f 13//100 42//100 43//100
f 17//101 48//101 44//101
f 55//102 46//102 44//102 54//102
f 50//103 52//103 48//103 45//103
f 49//104 42//104 46//104 55//104
f 43//105 42//105 49//105
f 44//106 48//106 54//106
f 58//107 56//107 49//107 55//107
f 53//108 59//108 61//108
f 52//109 57//109 60//109
f 55//110 54//110 58//110
f 54//111 60//111 58//111
f 63//112 65//112 58//112 60//112
f 60//113 57//113 62//113
f 59//114 56//114 64//114
f 60//115 62//115 63//115
f 58//116 65//116 66//116
f 27//117 26//117 25//117 28//117
f 75//118 68//118 71//118 79//118
f 57//119 61//119 67//119
f 56//120 58//120 66//120
f 64//121 68//121 72//121
f 67//122 64//122 69//122
f 63//123 73//123 71//123
f 67//124 69//124 70//124
f 65//125 63//125 71//125
f 66//126 71//126 68//126
f 70//127 78//127 77//127
f 69//128 76//128 78//128
f 84//129 88//129 94//129
f 85//130 90//130 89//130
f 83//131 91//131 92//131
f 86//132 82//132 93//132
f 84//133 81//133 88//133
f 83//134 84//134 91//134
f 79//135 84//135 83//135
f 74//136 87//136 84//136
f 75//137 83//137 82//137
f 76//138 82//138 86//138
f 77//139 85//139 87//139
f 78//140 76//140 86//140
f 92//141 91//141 28//141
o fundinho
v 0.606384 2.168264 -1.705267
v 0.572278 2.122111 -1.647053
v 0.697039 2.168046 -1.667893
v 0.655323 2.164373 -1.695417
v 0.729842 2.167740 -1.630881
v 0.751321 2.168265 -1.586320
v 0.757959 2.168046 -1.520818
v 0.699153 2.119996 -1.562549
v 0.738841 2.168046 -1.457741
v 0.708903 2.167740 -1.418278
v 0.620995 2.097276 -1.537337
v 0.669441 2.168046 -1.388340
v 0.622692 2.167740 -1.372198
v 0.573248 2.168046 -1.369229
v 0.630948 2.117174 -1.438345
v 0.510180 2.168046 -1.388377
v 0.471615 2.163089 -1.412108
v 0.441027 2.168265 -1.457792
v 0.540875 2.106130 -1.488746
v 0.418756 2.164289 -1.519514
v 0.513444 2.109583 -1.581255
v 0.428205 2.168046 -1.586410
v 0.459405 2.168265 -1.644386
v 0.496301 2.167740 -1.677335
v 0.540845 2.168046 -1.698999
vn -0.0263 -0.9774 -0.2096
vn 0.0572 -0.7984 -0.5995
vn 0.2362 -0.8956 -0.3770
vn 0.3367 -0.8541 -0.3963
vn 0.4484 -0.8646 0.2266
vn 0.0105 -0.9805 0.1960
vn -0.1670 -0.8576 0.4864
vn -0.4856 -0.8435 0.2295
vn -0.1121 -0.9937 -0.0038
vn -0.4482 -0.8883 0.0997
vn 0.1789 -0.9395 -0.2921
vn 0.4243 -0.8206 -0.3828
vn 0.5837 -0.7650 -0.2723
vn 0.6603 -0.7478 -0.0694
vn 0.3217 -0.9340 0.1554
vn 0.5502 -0.8182 0.1668
vn 0.4504 -0.8275 0.3353
vn 0.3755 -0.7785 0.5029
vn 0.2156 -0.7626 0.6099
vn 0.0317 -0.7921 0.6095
vn -0.3489 -0.8280 -0.4389
vn -0.4639 -0.8584 0.2187
vn -0.5561 -0.8217 -0.1247
vn -0.5297 -0.7977 -0.2881
vn -0.2603 -0.7960 -0.5464
vn -0.1621 -0.8601 0.4837
vn -0.0588 -0.7652 -0.6411
s 0
usemtl Material.004
f 96//142 105//142 115//142
f 95//143 98//143 96//143
f 96//144 98//144 102//144
f 98//145 97//145 102//145
f 102//146 103//146 109//146
f 105//147 109//147 113//147
f 111//148 113//148 109//148
f 112//149 114//149 111//149
f 105//150 113//150 115//150
f 113//151 114//151 115//151
f 105//152 96//152 102//152
f 97//153 99//153 102//153
f 99//154 100//154 102//154
f 102//155 100//155 101//155
f 105//156 102//156 109//156
f 102//157 101//157 103//157
f 109//158 103//158 104//158
f 104//159 106//159 109//159
f 106//160 107//160 109//160
f 107//161 108//161 109//161
f 118//162 96//162 115//162 117//162
f 113//163 111//163 114//163
f 114//164 116//164 115//164
f 116//165 117//165 115//165
f 118//166 119//166 96//166
f 111//167 109//167 108//167 110//167
f 119//168 95//168 96//168
o Sphere
v 0.536277 4.655871 -1.783943
v 0.871651 3.979833 -2.347159
v 0.841157 3.735159 -2.324423
v 0.882674 4.319459 -2.191302
v 1.106631 3.606437 -2.120836
v 0.783952 4.598234 -1.884646
v 1.219077 4.251939 -1.951103
v 1.240297 3.926325 -2.082308
v 1.325323 3.600555 -1.817090
v 1.055934 3.136960 -1.795225
v 1.024712 4.514126 -1.847665
v 1.423254 3.896015 -1.721296
v 0.817806 4.659724 -1.597656
v 1.135732 4.499956 -1.508379
v 1.348574 4.252369 -1.465852
v 1.419145 3.966171 -1.365911
v 1.362874 3.595848 -1.403924
v 1.120300 4.403049 -1.173256
v 1.255198 3.728353 -1.034085
v 0.893884 4.601353 -1.289569
v 1.182966 4.065981 -0.952879
v 0.984328 3.703122 -0.815744
v 0.849733 4.375086 -0.919331
v 0.835731 4.077299 -0.753639
v 0.646126 3.739740 -0.703821
v 0.623786 4.592523 -1.131679
v 0.427421 4.003279 -0.701965
v 0.597308 4.686831 -1.420722
v 0.491393 4.396155 -0.895335
v 0.271919 4.582289 -1.226110
v 0.169713 4.164658 -0.857928
v 0.159031 3.687800 -0.833008
v -0.029146 4.279084 -1.142274
v -0.116210 3.922192 -1.065638
v -0.107525 3.603798 -1.184076
v 0.091462 4.510326 -1.345379
v -0.235933 4.031447 -1.366462
v -0.190227 3.578893 -1.537133
v -0.121663 4.317000 -1.650514
v -0.242010 3.900716 -1.730756
v 0.819370 3.137982 -2.030044
v 0.481125 3.128252 -2.057192
v 0.347335 4.655167 -1.615895
v 0.133867 4.513588 -1.810710
v -0.054508 3.920475 -2.088545
v -0.076516 3.600364 -1.953633
v 0.178836 3.121332 -1.875910
v 0.632634 3.119420 -1.002934
v 0.060863 3.125478 -1.465833
v 0.026910 4.222067 -2.057913
v 1.003265 3.125263 -1.192651
v 1.124865 3.129285 -1.537396
v 0.186495 3.939683 -2.280750
v 0.369135 3.593292 -2.295082
v 0.260374 3.119838 -1.119777
v 0.392017 4.468855 -2.096478
v 0.445719 4.236518 -2.285733
v 0.435956 3.883332 -2.372041
v 0.721181 2.832329 -1.967326
v 0.943781 2.832784 -1.825921
v 1.042446 2.833266 -1.492616
v 0.880507 2.832795 -1.185141
v 0.546799 2.832252 -1.080588
v 0.268232 2.832459 -1.218743
v 0.147180 2.832803 -1.449285
v 0.170488 2.832152 -1.711040
v 0.305739 2.832324 -1.885796
v 0.506354 2.832806 -1.981019
vn 0.1173 0.4111 -0.9040
vn 0.0792 -0.1020 -0.9916
vn -0.0077 0.8596 -0.5109
vn 0.1033 0.7523 -0.6507
vn 0.5567 -0.1454 -0.8179
vn 0.3479 0.7467 -0.5668
vn 0.0478 0.9945 -0.0928
vn 0.5339 0.6218 -0.5729
vn 0.7816 -0.2582 -0.5678
vn 0.8760 0.2283 -0.4248
vn 0.8349 -0.4964 -0.2380
vn 0.9730 0.2281 -0.0338
vn 0.9537 -0.2869 -0.0899
vn 0.8972 -0.4330 -0.0865
vn 0.4721 0.8736 -0.1180
vn 0.8191 -0.4989 0.2831
vn 0.6296 -0.0517 0.7752
vn 0.4020 0.7592 0.5119
vn 0.1417 0.9448 0.2953
vn 0.4631 0.4142 0.7836
vn 0.3106 -0.0343 0.9499
vn 0.0881 0.7413 0.6653
vn -0.1126 0.9415 0.3175
vn -0.2645 -0.4719 0.8411
vn -0.2311 0.4597 0.8575
vn -0.4908 0.0564 0.8694
vn -0.4816 0.6429 0.5956
vn -0.7408 -0.2519 0.6227
vn 0.2424 -0.4257 0.8718
vn -0.8342 -0.4989 -0.2349
vn -0.7477 -0.5122 0.4227
vn -0.8657 -0.4426 0.2340
vn -0.7936 0.5787 0.1876
vn 0.5913 -0.4269 0.6842
vn 0.6112 -0.4946 -0.6179
vn -0.5254 0.8498 -0.0419
vn -0.9521 0.2924 -0.0891
vn -0.9141 -0.3067 -0.2654
vn -0.8360 -0.4867 -0.2533
vn 0.0844 -0.4376 -0.8952
vn -0.7028 0.5922 -0.3943
vn 0.2829 -0.3283 0.9012
vn -0.9534 -0.1281 -0.2730
vn -0.0688 0.9949 -0.0732
vn -0.2955 -0.1661 0.9408
vn -0.5042 0.6586 -0.5586
vn -0.6166 0.2425 -0.7490
vn -0.4243 0.5109 -0.7476
vn 0.6920 -0.1847 -0.6979
vn -0.4398 -0.4907 -0.7522
vn 0.8328 -0.3383 0.4381
vn -0.2868 0.2349 -0.9287
vn -0.9544 -0.2863 -0.0843
vn 0.0029 0.2373 -0.9714
vn 0.0182 -0.2603 -0.9653
vn 0.0777 -0.4431 -0.8931
vn 0.0453 0.6372 -0.7694
vn 0.1342 0.9656 -0.2227
vn 0.4192 -0.4137 -0.8082
vn 0.5866 0.3284 -0.7403
vn 0.7518 0.6255 -0.2089
vn 0.5646 -0.1379 -0.8137
vn 0.7227 -0.4449 -0.5289
vn 0.8780 -0.1429 -0.4569
vn 0.3526 0.9056 -0.2356
vn 0.0562 0.4555 0.8884
vn 0.9008 0.3613 -0.2407
vn 0.4339 0.8987 0.0631
vn 0.9871 -0.1543 0.0419
vn 0.9267 -0.1749 0.3325
vn 0.2218 0.9666 0.1284
vn 0.7199 0.6572 0.2232
vn 0.5602 0.7885 0.2538
vn 0.8076 0.4205 0.4135
vn 0.8474 0.3487 0.4003
vn 0.8732 0.0708 0.4822
vn 0.8072 -0.4405 0.3928
vn 0.5527 0.5256 0.6468
vn 0.2804 0.8038 0.5247
vn 0.4983 0.0543 0.8653
vn -0.9475 -0.1687 0.2716
vn 0.1100 0.0843 0.9903
vn -0.1899 -0.4231 0.8860
vn -0.1760 0.8034 0.5689
vn -0.2314 -0.1987 0.9523
vn -0.4003 0.6592 0.6366
vn -0.6169 0.0548 0.7851
vn -0.7165 0.3091 0.6254
vn -0.6681 -0.4269 0.6094
vn -0.5701 0.6896 0.4466
vn -0.8433 0.3013 0.4450
vn -0.2283 0.9640 0.1361
vn -0.8606 0.3049 -0.4079
vn -0.8314 0.5220 0.1903
vn -0.9906 -0.1229 0.0606
vn -0.4186 0.9039 0.0880
vn -0.6292 0.7755 -0.0519
vn 0.4032 -0.4906 0.7725
vn -0.8744 -0.1362 -0.4657
vn -0.5862 -0.2789 -0.7606
vn 0.9232 -0.2081 0.3232
vn -0.2879 0.8836 -0.3693
vn -0.5577 -0.4140 -0.7194
vn 0.9159 -0.3031 -0.2633
vn -0.4676 -0.2189 -0.8564
vn -0.4519 0.3811 -0.8066
vn -0.4233 -0.3053 0.8530
vn -0.3706 -0.1575 -0.9154
vn 0.5073 -0.3266 -0.7975
vn -0.8561 -0.2063 0.4738
vn 0.0755 -0.2332 -0.9695
vn 0.4513 -0.1669 0.8766
vn -0.7517 -0.3101 -0.5821
s 0
usemtl Material.001
f 176//169 123//169 121//169
f 177//170 121//170 122//170
f 175//171 120//171 125//171
f 175//172 125//172 123//172
f 122//173 121//173 124//173
f 125//174 130//174 123//174
f 120//175 147//175 132//175
f 123//176 130//176 126//176
f 124//177 127//177 128//177
f 127//178 126//178 131//178
f 128//179 171//179 129//179
f 131//180 134//180 135//180
f 128//181 131//181 136//181
f 128//182 136//182 171//182
f 130//183 132//183 133//183
f 171//184 136//184 170//184
f 138//185 140//185 141//185
f 137//186 139//186 142//186
f 147//187 145//187 139//187
f 142//188 143//188 140//188
f 143//189 144//189 141//189
f 145//190 148//190 142//190
f 147//191 149//191 145//191
f 151//192 174//192 167//192
f 148//193 150//193 146//193
f 146//194 150//194 151//194
f 150//195 149//195 152//195
f 151//196 153//196 154//196
f 144//197 167//197 141//197
f 166//198 168//198 157//198
f 154//199 168//199 174//199
f 154//200 157//200 168//200
f 152//201 155//201 158//201
f 141//202 170//202 138//202
f 124//203 129//203 160//203
f 162//204 163//204 155//204
f 156//205 158//205 159//205
f 159//206 165//206 157//206
f 157//207 165//207 166//207
f 173//208 160//208 161//208
f 158//209 163//209 169//209
f 167//210 182//210 181//210
f 166//211 185//211 168//211
f 162//212 147//212 120//212
f 174//213 182//213 167//213
f 163//214 175//214 169//214
f 164//215 169//215 172//215
f 175//216 176//216 169//216
f 129//217 179//217 160//217
f 166//218 173//218 161//218
f 170//219 181//219 180//219
f 172//220 176//220 177//220
f 168//221 185//221 184//221
f 177//222 176//222 121//222
f 173//223 177//223 122//223
f 173//224 122//224 160//224
f 176//225 175//225 123//225
f 120//226 132//226 125//226
f 122//227 124//227 160//227
f 127//228 121//228 123//228 126//228
f 133//229 134//229 126//229 130//229
f 124//230 121//230 127//230
f 124//231 128//231 129//231
f 128//232 127//232 131//232
f 125//233 132//233 130//233
f 146//234 143//234 142//234 148//234
f 131//235 126//235 134//235
f 132//236 139//236 133//236
f 131//237 135//237 136//237
f 135//238 138//238 136//238
f 132//239 147//239 139//239
f 133//240 137//240 134//240
f 137//241 133//241 139//241
f 134//242 137//242 140//242
f 135//243 134//243 140//243
f 138//244 135//244 140//244
f 170//245 136//245 138//245
f 140//246 137//246 142//246
f 139//247 145//247 142//247
f 140//248 143//248 141//248
f 156//249 157//249 154//249 153//249
f 144//250 143//250 146//250
f 144//251 151//251 167//251
f 145//252 149//252 148//252
f 151//253 144//253 146//253
f 150//254 148//254 149//254
f 150//255 153//255 151//255
f 153//256 150//256 152//256
f 151//257 154//257 174//257
f 152//258 149//258 155//258
f 153//259 152//259 156//259
f 147//260 162//260 149//260
f 169//261 164//261 159//261 158//261
f 152//262 158//262 156//262
f 157//263 156//263 159//263
f 155//264 149//264 162//264
f 158//265 155//265 163//265
f 141//266 167//266 170//266
f 159//267 164//267 165//267
f 173//268 165//268 164//268 172//268
f 171//269 170//269 180//269
f 120//270 175//270 163//270 162//270
f 166//271 165//271 173//271
f 179//272 129//272 171//272 180//272
f 186//273 166//273 161//273 187//273
f 172//274 169//274 176//274
f 174//275 183//275 182//275
f 172//276 177//276 173//276
f 160//277 179//277 178//277
f 183//278 174//278 168//278 184//278
f 187//279 161//279 160//279 178//279
f 170//280 167//280 181//280
f 166//281 186//281 185//281
